<svg id="Camada_1" data-name="Camada 1" xmlns="http://www.w3.org/2000/svg" viewBox="0 0 50 21"><defs><style>.cls-1{fill:#4C4C4C;}</style></defs><g id="Group_2845-3" data-name="Group 2845-3"><path id="Path_3151-6" data-name="Path 3151-6" class="cls-1" d="M7.77,10.12A2.37,2.37,0,1,0,5.4,7.75a2.37,2.37,0,0,0,2.37,2.37Z"/><path id="Path_3162-6" data-name="Path 3162-6" class="cls-1" d="M21.46,0H3.08A3.49,3.49,0,0,0,0,3.46v14A3.51,3.51,0,0,0,3.51,21H21a3.49,3.49,0,0,0,3.46-3V3A3.49,3.49,0,0,0,21.46,0ZM22.79,13.1,19.67,9.69a.87.87,0,0,0-1,.16l-6.5,6.5L7.5,13.24a.88.88,0,0,0-1.11.11L1.76,17.48v-14A1.75,1.75,0,0,1,3.51,1.71H21a1.75,1.75,0,0,1,1.76,1.75h0Z"/></g><g id="Group_2845-3-2" data-name="Group 2845-3"><path id="Path_3151-6-2" data-name="Path 3151-6" class="cls-1" d="M33.18,10.12a2.37,2.37,0,1,0-2.37-2.37,2.36,2.36,0,0,0,2.37,2.37Z"/><path id="Path_3162-6-2" data-name="Path 3162-6" class="cls-1" d="M46.87,0H28.49a3.49,3.49,0,0,0-3.08,3.47v14A3.52,3.52,0,0,0,28.92,21H46.45a3.51,3.51,0,0,0,3.47-3V3A3.51,3.51,0,0,0,46.87,0ZM48.2,13.1,45.09,9.69a.86.86,0,0,0-1,.16l-6.51,6.5-4.66-3.11a.87.87,0,0,0-1.1.11l-4.64,4.13v-14a1.75,1.75,0,0,1,1.75-1.75H46.45A1.75,1.75,0,0,1,48.2,3.46h0Z"/></g></svg>