<svg id="Camada_1" data-name="Camada 1" xmlns="http://www.w3.org/2000/svg" viewBox="0 0 23 23"><defs><style>.cls-1{fill:#353a3f;}</style></defs><path id="Path_3080" data-name="Path 3080" class="cls-1" d="M1.87,5.17A17.16,17.16,0,0,1,6.53,3.94c1.83-.18,3.38.09,4.28,1v13.4a7.65,7.65,0,0,0-4.42-.68,18.7,18.7,0,0,0-4.52,1.12ZM12.19,5c.89-.94,2.44-1.21,4.27-1a17.06,17.06,0,0,1,4.66,1.23V18.81a18,18,0,0,0-4.52-1.12,7.57,7.57,0,0,0-4.42.68ZM11.5,3.72A6.77,6.77,0,0,0,6.39,2.57,18.77,18.77,0,0,0,.9,4.09a.7.7,0,0,0-.4.63V19.84a.69.69,0,0,0,.69.69.67.67,0,0,0,.28-.06,17.18,17.18,0,0,1,5.06-1.41c1.94-.19,3.56.12,4.43,1.21a.69.69,0,0,0,1,.11h0a.57.57,0,0,0,.11-.11c.87-1.08,2.49-1.4,4.43-1.21a17.18,17.18,0,0,1,5.06,1.41.7.7,0,0,0,.91-.35.67.67,0,0,0,.06-.28V4.71a.69.69,0,0,0-.4-.62,18.83,18.83,0,0,0-5.5-1.52A6.74,6.74,0,0,0,11.5,3.72Z"/></svg>