<svg id="Camada_1" data-name="Camada 1" xmlns="http://www.w3.org/2000/svg" viewBox="0 0 23 23"><defs><style>.cls-1{fill:#353a3f;}</style></defs><path class="cls-1" d="M18.57,4.43A9.68,9.68,0,0,0,11.5,1.5,9.62,9.62,0,0,0,4.43,4.43,9.62,9.62,0,0,0,1.5,11.5a9.68,9.68,0,0,0,2.93,7.07A9.7,9.7,0,0,0,11.5,21.5a9.76,9.76,0,0,0,7.07-2.93A9.75,9.75,0,0,0,21.5,11.5,9.68,9.68,0,0,0,18.57,4.43ZM11.5,20a8.26,8.26,0,0,1-6-2.5,8.33,8.33,0,0,1-2.5-6,8.26,8.26,0,0,1,2.5-6,8.26,8.26,0,0,1,6-2.5,8.33,8.33,0,0,1,6,2.5,8.26,8.26,0,0,1,2.5,6,8.33,8.33,0,0,1-2.5,6A8.33,8.33,0,0,1,11.5,20Z"/><path class="cls-1" d="M13.8,12.66a2,2,0,0,1-2.2,2,2,2,0,0,1-1.82-.92,4.06,4.06,0,0,1-.5-2.24,3.52,3.52,0,0,1,.65-2.3,2,2,0,0,1,1.69-.8,2.34,2.34,0,0,1,1.47.39,2.3,2.3,0,0,1,.68,1.3l0,.1h2.49l0-.15a4.25,4.25,0,0,0-1.55-2.89h0a5.05,5.05,0,0,0-3.09-.86A4.61,4.61,0,0,0,7.91,7.82,5.42,5.42,0,0,0,6.68,11.5a5.43,5.43,0,0,0,1.25,3.74,4.57,4.57,0,0,0,3.65,1.52,4.77,4.77,0,0,0,3.16-1A5,5,0,0,0,16.3,12.7l0-.15H13.82Z"/></svg>