<svg id="Camada_1" data-name="Camada 1" xmlns="http://www.w3.org/2000/svg" viewBox="0 0 50 21"><defs><style>.cls-1{fill:#4C4C4C;}</style></defs><g id="Component_390_2" data-name="Component 390 2"><g id="Group_2848" data-name="Group 2848"><path id="Path_3151-4" data-name="Path 3151-4" class="cls-1" d="M7.82,10.07A2.35,2.35,0,1,0,5.44,7.72a2.37,2.37,0,0,0,2.38,2.35Z"/><path id="Path_3162-4" data-name="Path 3162-4" class="cls-1" d="M31.44.14,3.1,0A3.5,3.5,0,0,0,0,3.46V17.38a3.5,3.5,0,0,0,3.53,3.48L31,21a3.5,3.5,0,0,0,3.49-3V3.1A3.5,3.5,0,0,0,31.44.14ZM32.78,9.8l-6.35,4.9L19.8,9.64a.9.9,0,0,0-1,.16l-6.55,6.46L7.55,13.17a.88.88,0,0,0-1.11.11l-4.67,4.1V3.45A1.75,1.75,0,0,1,3.53,1.71h0L31,1.85a1.76,1.76,0,0,1,1.77,1.74h0Z"/></g></g></svg>