<svg id="Camada_1" data-name="Camada 1" xmlns="http://www.w3.org/2000/svg" viewBox="0 0 50 21"><defs><style>.cls-1{fill:#4C4C4C;}</style></defs><path id="Path_3151-5" data-name="Path 3151-5" class="cls-1" d="M7.94,10.13a2.36,2.36,0,1,0-2.4-2.36,2.36,2.36,0,0,0,2.4,2.36Z"/><path class="cls-1" d="M46.84,0H3.19A3.52,3.52,0,0,0,.07,3.48v14A3.53,3.53,0,0,0,3.63,21H46.42a3.53,3.53,0,0,0,3.51-3V3A3.52,3.52,0,0,0,46.84,0ZM42.75,4.41c-.15.07-.27.28-.32.33h0L37,13c-.42-.48-4.67-5.48-5.73-6.71a1.2,1.2,0,0,1-.11-.12S31.1,6.09,31,6s-.21-.13-.3-.1-.12.12-.22.23-.1.15-.18.25L24.67,13.8,20,9.71a.88.88,0,0,0-1,.16l-6.59,6.5L7.66,13.25a.91.91,0,0,0-1.12.11L1.84,17.5v-14A1.76,1.76,0,0,1,3.62,1.73H46.41a1.76,1.76,0,0,1,1.78,1.75h0v7.2c-.52-.63-3.42-4.23-4.61-5.7-.18-.23-.41-.62-.71-.58"/></svg>