<svg id="Camada_1" data-name="Camada 1" xmlns="http://www.w3.org/2000/svg" viewBox="0 0 23 23"><defs><style>.cls-1{fill:#353a3f;fill-rule:evenodd;}</style></defs><path id="Path_3079" data-name="Path 3079" class="cls-1" d="M11.51,2.75A3.75,3.75,0,1,0,15.26,6.5h0A3.75,3.75,0,0,0,11.51,2.75Zm-5,3.75a5,5,0,1,1,5.62,5v6.92a.63.63,0,0,1-1.25,0V11.46a5,5,0,0,1-4.37-5ZM9.63,17.22a.62.62,0,0,1-.52.71A7.17,7.17,0,0,0,7,18.55a1.5,1.5,0,0,0-.46.33.41.41,0,0,0-.07.11h0s0,0,0,.05a.77.77,0,0,0,.18.18,3.46,3.46,0,0,0,1,.5,12.37,12.37,0,0,0,3.78.51,12.41,12.41,0,0,0,3.78-.51,3.53,3.53,0,0,0,1-.5.62.62,0,0,0,.18-.18s0,0,0-.05h0a.26.26,0,0,0-.07-.11,1.5,1.5,0,0,0-.46-.33,6.77,6.77,0,0,0-2.07-.61.63.63,0,0,1-.53-.71.61.61,0,0,1,.7-.53h0a8.31,8.31,0,0,1,2.44.74A1.91,1.91,0,0,1,17.75,19a1.55,1.55,0,0,1-.68,1.22,4.49,4.49,0,0,1-1.4.7,13.69,13.69,0,0,1-4.17.58,13.75,13.75,0,0,1-4.18-.58,4.55,4.55,0,0,1-1.39-.7A1.55,1.55,0,0,1,5.25,19a1.91,1.91,0,0,1,1.2-1.56,8.31,8.31,0,0,1,2.44-.74.63.63,0,0,1,.73.5Z"/></svg>