<svg id="Camada_1" data-name="Camada 1" xmlns="http://www.w3.org/2000/svg" viewBox="0 0 21 21"><defs><style>.cls-1{fill:#666d73;fill-rule:evenodd;}</style></defs><g id="Group_2853" data-name="Group 2853"><path id="Path_3163" data-name="Path 3163" class="cls-1" d="M10.12,2.16a.54.54,0,0,1,.76,0h0L13,4.28a.53.53,0,0,1-.75.75h0L11,3.81v4a.54.54,0,0,1-.51.56A.53.53,0,0,1,10,7.89V3.81L8.75,5A.53.53,0,0,1,8,4.28H8Zm.38,10.47a.53.53,0,0,1,.53.53v4L12.25,16a.53.53,0,0,1,.75.75l-2.12,2.12a.53.53,0,0,1-.75,0h0L8,16.72A.53.53,0,0,1,8,16a.52.52,0,0,1,.73,0L10,17.19v-4A.53.53,0,0,1,10.5,12.63ZM2.16,10.88a.53.53,0,0,1,0-.75h0L4.28,8A.53.53,0,0,1,5,8a.52.52,0,0,1,0,.73L3.81,10h4a.54.54,0,0,1,.56.51.53.53,0,0,1-.51.55H3.81L5,12.25a.53.53,0,0,1-.75.75h0Zm10.47-.38a.53.53,0,0,1,.53-.53h4L16,8.75A.52.52,0,0,1,16,8a.54.54,0,0,1,.73,0h0l2.12,2.13a.53.53,0,0,1,0,.75h0L16.72,13a.53.53,0,0,1-.75-.75L17.19,11h-4a.52.52,0,0,1-.53-.53Z"/></g></svg>