<svg id="Camada_1" data-name="Camada 1" xmlns="http://www.w3.org/2000/svg" viewBox="0 0 50 21"><defs><style>.cls-1{fill:#4C4C4C;}</style></defs><path class="cls-1" d="M27,10.5a1.75,1.75,0,0,1,1.75-1.75h19.5a1.75,1.75,0,0,1,0,3.5H28.75A1.75,1.75,0,0,1,27,10.5Z"/><path class="cls-1" d="M27,1.75A1.75,1.75,0,0,1,28.75,0h19.5a1.75,1.75,0,0,1,0,3.5H28.75A1.75,1.75,0,0,1,27,1.75Z"/><path class="cls-1" d="M27,19.25a1.75,1.75,0,0,1,1.75-1.75h19.5a1.75,1.75,0,0,1,0,3.5H28.75A1.75,1.75,0,0,1,27,19.25Z"/><g id="Group_2845-3" data-name="Group 2845-3"><path id="Path_3151-6" data-name="Path 3151-6" class="cls-1" d="M7.77,10.12A2.37,2.37,0,1,0,5.4,7.75a2.37,2.37,0,0,0,2.37,2.37Z"/><path id="Path_3162-6" data-name="Path 3162-6" class="cls-1" d="M21.46,0H3.08A3.49,3.49,0,0,0,0,3.46v14A3.51,3.51,0,0,0,3.51,21H21a3.49,3.49,0,0,0,3.46-3V3A3.49,3.49,0,0,0,21.46,0ZM22.79,13.1,19.67,9.69a.87.87,0,0,0-1,.16l-6.5,6.5L7.5,13.24a.88.88,0,0,0-1.11.11L1.76,17.48v-14A1.75,1.75,0,0,1,3.51,1.71H21a1.75,1.75,0,0,1,1.76,1.75h0Z"/></g></svg>