<svg id="Camada_1" data-name="Camada 1" xmlns="http://www.w3.org/2000/svg" viewBox="0 0 23 23"><defs><style>.cls-1{fill:#353a3f;}</style></defs><g id="Group_2532" data-name="Group 2532"><path id="Path_3094" data-name="Path 3094" class="cls-1" d="M20.22,2H5.08A2.37,2.37,0,0,0,2.71,4.22l.19,0h1a1.19,1.19,0,0,1,1.18-1H20.22a1.19,1.19,0,0,1,1.19,1.19V16.29a1.18,1.18,0,0,1-1,1.17v1a.78.78,0,0,1,0,.16,2.36,2.36,0,0,0,2.19-2.36V4.38A2.39,2.39,0,0,0,20.22,2Z"/><path id="Path_3121" data-name="Path 3121" class="cls-1" d="M17.9,4.35H2.77A2.37,2.37,0,0,0,.4,6.57l.19,0h1a1.19,1.19,0,0,1,1.17-1H17.9a1.19,1.19,0,0,1,1.2,1.19V18.64a1.2,1.2,0,0,1-1,1.17v1c0,.05,0,.11,0,.16a2.37,2.37,0,0,0,2.19-2.36V6.73A2.38,2.38,0,0,0,17.9,4.35Z"/><path id="Path_3095" data-name="Path 3095" class="cls-1" d="M19.09,18.8a1.18,1.18,0,0,1-1.17,1H2.78a1.19,1.19,0,0,1-1.19-1.19V6.71a1.18,1.18,0,0,1,1-1.17v-1a.78.78,0,0,1,0-.16A2.36,2.36,0,0,0,.4,6.71V18.62A2.39,2.39,0,0,0,2.78,21H17.92a2.37,2.37,0,0,0,2.37-2.22l-.19,0Z"/></g></svg>