<svg id="Camada_1" data-name="Camada 1" xmlns="http://www.w3.org/2000/svg" viewBox="0 0 50 21"><defs><style>.cls-1{fill:#4C4C4C;}</style></defs><path class="cls-1" d="M0,10.5A1.75,1.75,0,0,1,1.75,8.75h19.5a1.75,1.75,0,0,1,0,3.5H1.75A1.75,1.75,0,0,1,0,10.5Z"/><path class="cls-1" d="M0,1.75A1.75,1.75,0,0,1,1.75,0h19.5a1.75,1.75,0,0,1,0,3.5H1.75A1.75,1.75,0,0,1,0,1.75Z"/><path class="cls-1" d="M0,19.25A1.75,1.75,0,0,1,1.75,17.5h19.5a1.75,1.75,0,0,1,0,3.5H1.75A1.75,1.75,0,0,1,0,19.25Z"/><path class="cls-1" d="M27,10.5a1.75,1.75,0,0,1,1.75-1.75h19.5a1.75,1.75,0,0,1,0,3.5H28.75A1.75,1.75,0,0,1,27,10.5Z"/><path class="cls-1" d="M27,1.75A1.75,1.75,0,0,1,28.75,0h19.5a1.75,1.75,0,0,1,0,3.5H28.75A1.75,1.75,0,0,1,27,1.75Z"/><path class="cls-1" d="M27,19.25a1.75,1.75,0,0,1,1.75-1.75h19.5a1.75,1.75,0,0,1,0,3.5H28.75A1.75,1.75,0,0,1,27,19.25Z"/></svg>