<svg id="Camada_1" data-name="Camada 1" xmlns="http://www.w3.org/2000/svg" viewBox="0 0 50 21"><defs><style>.cls-1{fill:#4C4C4C;}</style></defs><path class="cls-1" d="M0,10.5A1.75,1.75,0,0,1,1.75,8.75h19.5a1.75,1.75,0,0,1,0,3.5H1.75A1.75,1.75,0,0,1,0,10.5Z"/><path class="cls-1" d="M0,1.75A1.75,1.75,0,0,1,1.75,0h19.5a1.75,1.75,0,0,1,0,3.5H1.75A1.75,1.75,0,0,1,0,1.75Z"/><path class="cls-1" d="M0,19.25A1.75,1.75,0,0,1,1.75,17.5h19.5a1.75,1.75,0,0,1,0,3.5H1.75A1.75,1.75,0,0,1,0,19.25Z"/><g id="Group_2845-3" data-name="Group 2845-3"><path id="Path_3151-6" data-name="Path 3151-6" class="cls-1" d="M33.26,10.13A2.36,2.36,0,1,0,30.9,7.77a2.35,2.35,0,0,0,2.36,2.36Z"/><path id="Path_3162-6" data-name="Path 3162-6" class="cls-1" d="M47,0H28.58A3.51,3.51,0,0,0,25.5,3.48v14A3.5,3.5,0,0,0,29,21H46.53A3.5,3.5,0,0,0,50,18V3A3.49,3.49,0,0,0,47,0Zm1.33,13.12L45.17,9.7a.88.88,0,0,0-1,.16l-6.5,6.51L33,13.25a.89.89,0,0,0-1.11.11l-4.64,4.13v-14A1.76,1.76,0,0,1,29,1.72H46.53a1.75,1.75,0,0,1,1.75,1.75h0Z"/></g></svg>