<svg id="Delete" xmlns="http://www.w3.org/2000/svg" width="18.201" height="21.001" viewBox="0 0 18.201 21.001" >
  <path id="Path_2822" data-name="Path 2822" d="M1260.987,318.178a.533.533,0,0,1,.533.533v6.4a.533.533,0,1,1-1.066,0v-6.4A.533.533,0,0,1,1260.987,318.178Zm2.667,0a.533.533,0,0,1,.533.533v6.4a.534.534,0,0,1-1.067,0v-6.4A.534.534,0,0,1,1263.654,318.178Zm3.2.533a.534.534,0,0,0-1.067,0v6.4a.534.534,0,0,0,1.067,0Z" transform="translate(-1254.553 -308.873)" fill="white"/>
  <path id="Path_2823" data-name="Path 2823" d="M1274.921,316.511a1.4,1.4,0,0,1-1.4,1.4h-.7v12.6a2.8,2.8,0,0,1-2.8,2.8h-8.4a2.8,2.8,0,0,1-2.8-2.8v-12.6h-.7a1.4,1.4,0,0,1-1.4-1.4v-1.4a1.4,1.4,0,0,1,1.4-1.4h4.9a1.4,1.4,0,0,1,1.4-1.4h2.8a1.4,1.4,0,0,1,1.4,1.4h4.9a1.4,1.4,0,0,1,1.4,1.4Zm-14.535,1.4-.165.083v12.518a1.4,1.4,0,0,0,1.4,1.4h8.4a1.4,1.4,0,0,0,1.4-1.4V317.994l-.164-.083Zm-2.265-1.4v-1.4h15.4v1.4Z" transform="translate(-1256.72 -312.311)" fill="white"/>
</svg>
