<svg id="Camada_1" data-name="Camada 1" xmlns="http://www.w3.org/2000/svg" viewBox="0 0 19 19"><defs><style>.cls-1,.cls-2{fill:white;}.cls-2{fill-rule:evenodd;}</style></defs><path class="cls-1" d="M18.81,1.87a.65.65,0,0,1,0,.91L17.46,4.14l-2.6-2.6L16.22.19a.65.65,0,0,1,.91,0l1.68,1.68ZM16.54,5.05,14,2.46,5.11,11.3a.67.67,0,0,0-.16.25l-1,3.13a.32.32,0,0,0,.2.41.26.26,0,0,0,.21,0l3.13-1a.6.6,0,0,0,.25-.16l8.84-8.83Z"/><path class="cls-2" d="M0,16.86a2,2,0,0,0,2,1.95H16.21a2,2,0,0,0,1.95-1.95V9.08a.65.65,0,0,0-1.3,0v7.78a.65.65,0,0,1-.65.65H2a.65.65,0,0,1-.65-.65V2.59A.65.65,0,0,1,2,2h8.43a.65.65,0,0,0,0-1.3H2A1.94,1.94,0,0,0,0,2.59Z"/></svg>