<svg id="box-arrow-up-right" xmlns="http://www.w3.org/2000/svg" width="10" height="10" viewBox="0 0 10 10">
  <path id="Path_422" data-name="Path 422" d="M.175,9.021a1.154,1.154,0,0,0,1.154,1.154H7.482A1.154,1.154,0,0,0,8.636,9.021V5.944a.385.385,0,1,0-.769,0V9.021a.385.385,0,0,1-.385.385H1.329a.385.385,0,0,1-.385-.385V2.867a.385.385,0,0,1,.385-.385H4.405a.385.385,0,1,0,0-.769H1.329A1.154,1.154,0,0,0,.175,2.867ZM5.559.56A.385.385,0,0,1,5.944.175H9.79a.385.385,0,0,1,.385.385V4.405a.385.385,0,1,1-.769,0V.944H5.944A.385.385,0,0,1,5.559.56Z" transform="translate(-0.175 -0.174)" fill="#167fa6"/>
  <path id="Path_423" data-name="Path 423" d="M7.186.288a.385.385,0,0,1,0,.545L1.032,6.986a.385.385,0,1,1-.545-.545L6.641.288a.385.385,0,0,1,.545,0Z" transform="translate(2.701 -0.175)" fill="#167fa6"/>
</svg>
