<svg xmlns="http://www.w3.org/2000/svg" width="125.897" height="19.001" viewBox="0 0 125.897 19.001">
  <g id="Group_2495" data-name="Group 2495" transform="translate(4944.999 3686.063)">
    <g id="Icon_Formato_Word" data-name="Icon Formato Word" transform="translate(-4854.799 -3686.062)">
      <g id="Group_773" data-name="Group 773" transform="translate(-492.201 -657.038)">
        <g id="Group_771" data-name="Group 771">
          <path id="Path_1457" data-name="Path 1457" d="M495.624,662.4a.6.6,0,0,1,.72.433h0l1.23,4.921,1.184-4.341a.594.594,0,0,1,1.145,0l1.184,4.341,1.23-4.921a.594.594,0,0,1,1.152.287l-1.781,7.125a.594.594,0,0,1-1.149.012l-1.208-4.428-1.209,4.429a.594.594,0,0,1-1.149-.012l-1.781-7.125a.594.594,0,0,1,.432-.72Z" fill="#adb5bd"/>
        </g>
        <g id="Group_772" data-name="Group 772">
          <path id="Path_1458" data-name="Path 1458" d="M494.576,657.038a2.375,2.375,0,0,0-2.375,2.375h0v14.25a2.375,2.375,0,0,0,2.375,2.375h9.5a2.377,2.377,0,0,0,2.375-2.375v-14.25a2.375,2.375,0,0,0-2.375-2.375h-9.5Zm0,1.187h9.5a1.188,1.188,0,0,1,1.187,1.188v14.25a1.186,1.186,0,0,1-1.187,1.187h-9.5a1.186,1.186,0,0,1-1.188-1.186h0v-14.25A1.188,1.188,0,0,1,494.576,658.225Z" fill="#adb5bd"/>
        </g>
      </g>
    </g>
    <g id="Icon_Formato_Som" data-name="Icon Formato Som" transform="translate(-4872.875 -3686.062)">
      <g id="Group_776" data-name="Group 776" transform="translate(-474.125 -657.038)">
        <g id="Group_774" data-name="Group 774">
          <path id="Path_1459" data-name="Path 1459" d="M483.986,660.753a1.187,1.187,0,0,1,1.4.928v0a1.207,1.207,0,0,1,.023.232v2.138l-2.969.594v6.044a1.624,1.624,0,0,1-.786,1.334,3.048,3.048,0,0,1-3.178,0,1.525,1.525,0,0,1,0-2.668,2.9,2.9,0,0,1,1.589-.447,3.042,3.042,0,0,1,1.188.232v-6.87a1.187,1.187,0,0,1,.955-1.164Z" fill="#adb5bd"/>
        </g>
        <g id="Group_775" data-name="Group 775">
          <path id="Path_1460" data-name="Path 1460" d="M476.5,657.038a2.375,2.375,0,0,0-2.375,2.375h0v14.25a2.375,2.375,0,0,0,2.375,2.375H486a2.377,2.377,0,0,0,2.375-2.375v-14.25A2.375,2.375,0,0,0,486,657.038h-9.5Zm0,1.187H486a1.186,1.186,0,0,1,1.187,1.187h0v14.25A1.186,1.186,0,0,1,486,674.85h-9.5a1.186,1.186,0,0,1-1.188-1.186h0v-14.25A1.188,1.188,0,0,1,476.5,658.225Z" fill="#adb5bd"/>
        </g>
      </g>
    </g>
    <g id="Icon_Formato_PDF" data-name="Icon Formato PDF" transform="translate(-4908.41 -3686.062)">
      <g id="Group_779" data-name="Group 779" transform="translate(-438.59 -657.038)">
        <g id="Group_777" data-name="Group 777">
          <path id="Path_1461" data-name="Path 1461" d="M440.965,657.038a2.375,2.375,0,0,0-2.375,2.375h0v14.25a2.377,2.377,0,0,0,2.375,2.375h9.5a2.375,2.375,0,0,0,2.375-2.375v-14.25a2.375,2.375,0,0,0-2.375-2.375h-9.5Zm0,1.187h9.5a1.188,1.188,0,0,1,1.188,1.188v14.25a1.186,1.186,0,0,1-1.187,1.187h-9.5a1.186,1.186,0,0,1-1.187-1.187h0v-14.25A1.188,1.188,0,0,1,440.965,658.225Z" fill="#adb5bd"/>
        </g>
        <g id="Group_778" data-name="Group 778">
          <path id="Path_1462" data-name="Path 1462" d="M441.681,671.391a.964.964,0,0,1-.52-.5,1.275,1.275,0,0,1,.1-1.308,3.162,3.162,0,0,1,1.066-.935,9.156,9.156,0,0,1,1.759-.766,23.277,23.277,0,0,0,1.262-2.644,8.645,8.645,0,0,1-.511-1.538,3.316,3.316,0,0,1-.055-1.349,1.286,1.286,0,0,1,.772-.978,1.246,1.246,0,0,1,.715-.091.831.831,0,0,1,.566.433,1.46,1.46,0,0,1,.151.639,3.708,3.708,0,0,1-.056.729,11.6,11.6,0,0,1-.617,2.131,13.084,13.084,0,0,0,1.164,2,6.827,6.827,0,0,1,1.584.059,1.9,1.9,0,0,1,1.14.553,1.007,1.007,0,0,1,.237.615,1.365,1.365,0,0,1-.164.668,1.226,1.226,0,0,1-.42.494,1.015,1.015,0,0,1-.606.164,2.01,2.01,0,0,1-1.107-.5,6.794,6.794,0,0,1-1.082-1.128,13.8,13.8,0,0,0-2.372.482,13.4,13.4,0,0,1-1.212,1.793,3.211,3.211,0,0,1-1.1.935A.941.941,0,0,1,441.681,671.391Zm1.638-2.257q-.279.128-.545.282a2.325,2.325,0,0,0-.768.65.388.388,0,0,0-.048.428.253.253,0,0,0,.031.053l.042-.015a2.425,2.425,0,0,0,.754-.679Q443.068,669.507,443.319,669.134Zm1.948-1.58q.594-.138,1.2-.229-.324-.5-.606-1.019-.279.631-.593,1.247Zm2.9.535a4.571,4.571,0,0,0,.517.486,1.169,1.169,0,0,0,.591.3.127.127,0,0,0,.083-.017.359.359,0,0,0,.112-.149.518.518,0,0,0,.07-.237.117.117,0,0,0-.031-.075,1.08,1.08,0,0,0-.615-.248,4.658,4.658,0,0,0-.727-.063Zm-2.363-4.164a8.037,8.037,0,0,0,.238-.983,2.836,2.836,0,0,0,.045-.552.751.751,0,0,0-.038-.235.605.605,0,0,0-.173.047.408.408,0,0,0-.232.336,2.469,2.469,0,0,0,.054.976c.029.132.064.27.107.411Z" fill="#adb5bd"/>
        </g>
      </g>
    </g>
    <g id="Icon_Formato_Video" data-name="Icon Formato Video" transform="translate(-4889.883 -3686.062)">
      <g id="Group_782" data-name="Group 782" transform="translate(-457.117 -657.038)">
        <g id="Group_780" data-name="Group 780">
          <path id="Path_1463" data-name="Path 1463" d="M461.867,669.053v-5.028a.594.594,0,0,1,.9-.51l4.189,2.514a.593.593,0,0,1,.206.813.58.58,0,0,1-.206.206l-4.189,2.514a.593.593,0,0,1-.9-.511Z" fill="#adb5bd"/>
        </g>
        <g id="Group_781" data-name="Group 781">
          <path id="Path_1464" data-name="Path 1464" d="M459.492,657.038a2.375,2.375,0,0,0-2.375,2.375h0v14.25a2.375,2.375,0,0,0,2.375,2.375h9.5a2.377,2.377,0,0,0,2.375-2.375v-14.25a2.375,2.375,0,0,0-2.375-2.375h-9.5Zm0,1.187h9.5a1.188,1.188,0,0,1,1.184,1.188v14.25a1.186,1.186,0,0,1-1.187,1.187h-9.5a1.186,1.186,0,0,1-1.188-1.186h0v-14.25a1.188,1.188,0,0,1,1.188-1.188Z" fill="#adb5bd"/>
        </g>
      </g>
    </g>
    <g id="Icon_Formato_Texto" data-name="Icon Formato Texto" transform="translate(-4944.999 -3686.062)">
      <g id="Group_785" data-name="Group 785" transform="translate(-402.001 -657.038)">
        <g id="Group_783" data-name="Group 783">
          <path id="Path_1465" data-name="Path 1465" d="M405.563,661.788a.594.594,0,0,0,0,1.187h7.125a.594.594,0,1,0,.048-1.187.371.371,0,0,0-.048,0Zm-.593,2.968a.593.593,0,0,1,.593-.593h7.125a.594.594,0,1,1,.048,1.187.371.371,0,0,1-.048,0h-7.125a.592.592,0,0,1-.593-.593v0Zm.593,1.782a.594.594,0,0,0,0,1.187h7.125a.594.594,0,1,0,.048-1.187.371.371,0,0,0-.048,0Zm0,2.375a.594.594,0,0,0,0,1.187h3.563a.594.594,0,1,0,.048-1.187.371.371,0,0,0-.048,0Z" fill="#adb5bd"/>
        </g>
        <g id="Group_784" data-name="Group 784">
          <path id="Path_1466" data-name="Path 1466" d="M402,659.413a2.375,2.375,0,0,1,2.375-2.375h9.5a2.375,2.375,0,0,1,2.375,2.375h0v14.25a2.375,2.375,0,0,1-2.375,2.375h-9.5A2.375,2.375,0,0,1,402,673.663Zm11.875-1.188h-9.5a1.188,1.188,0,0,0-1.188,1.188v14.25a1.186,1.186,0,0,0,1.187,1.187h9.5a1.186,1.186,0,0,0,1.187-1.185V659.413a1.187,1.187,0,0,0-1.186-1.188Z" fill="#adb5bd"/>
        </g>
      </g>
    </g>
    <g id="Icon_Formato_Desconhecido" data-name="Icon Formato Desconhecido" transform="translate(-4838.101 -3686.063)">
      <g id="Group_788" data-name="Group 788" transform="translate(-508.899 -657.037)">
        <path id="Path_1467" data-name="Path 1467" d="M517.151,657.553a1.764,1.764,0,0,1,2.493,0l7.737,7.738a1.759,1.759,0,0,1,0,2.488l0,0-7.737,7.738a1.759,1.759,0,0,1-2.488,0l0,0-7.739-7.736a1.761,1.761,0,0,1,0-2.489h0Zm1.662.832a.587.587,0,0,0-.83,0h0l-7.738,7.736a.587.587,0,0,0,0,.83h0l7.738,7.738a.586.586,0,0,0,.83,0h0l7.738-7.738a.589.589,0,0,0,0-.831l-7.738-7.738Z" fill="#adb5bd"/>
        <path id="Path_1468" data-name="Path 1468" d="M515.138,663.909a.282.282,0,0,0,.269.293h1a.33.33,0,0,0,.315-.3,1.484,1.484,0,0,1,1.594-1.347,1.379,1.379,0,0,1,1.548,1.186,1.354,1.354,0,0,1,.012.2c0,.754-.444,1.1-1.145,1.628a2.7,2.7,0,0,0-1.387,2.36v.258a.3.3,0,0,0,.3.292h.963a.3.3,0,0,0,.3-.3h0v-.125c0-.852.324-1.1,1.2-1.764a2.9,2.9,0,0,0,1.478-2.442c0-1.794-1.516-2.661-3.175-2.661C516.9,661.194,515.251,661.9,515.138,663.909Zm1.849,6.843a1.214,1.214,0,1,0,1.308-1.112c-.036,0-.072,0-.108,0a1.118,1.118,0,0,0-1.2,1.033q0,.042,0,.084Z" fill="#adb5bd"/>
      </g>
    </g>
    <g id="Icon_Formato_Imagem" data-name="Icon Formato Imagem" transform="translate(-4926.893 -3686.062)">
      <path id="Path_1469" data-name="Path 1469" d="M427.234,663.569a1.781,1.781,0,1,1-1.781-1.781,1.781,1.781,0,0,1,1.781,1.781Z" transform="translate(-420.107 -657.038)" fill="#343a40"/>
      <path id="Path_1470" data-name="Path 1470" d="M431.982,657.038h-9.5a2.375,2.375,0,0,0-2.375,2.375h0v14.25a2.375,2.375,0,0,0,2.375,2.375h9.5a2.375,2.375,0,0,0,2.375-2.375v-14.25a2.375,2.375,0,0,0-2.375-2.375ZM421.3,659.413a1.187,1.187,0,0,1,1.186-1.188h9.5a1.188,1.188,0,0,1,1.188,1.188v9.5l-2.474-2.474a.594.594,0,0,0-.84,0,.539.539,0,0,0-.062.074l-2.562,3.586-2.571-1.544a.593.593,0,0,0-.725.091l-2.641,2.641Z" transform="translate(-420.107 -657.038)" fill="#343a40"/>
    </g>
  </g>
</svg>
