<svg xmlns="http://www.w3.org/2000/svg" width="142.804" height="19" viewBox="0 0 142.804 19">
  <g id="Icons_Conjunto_Ficha_Recurso" data-name="Icons/Conjunto/Ficha Recurso" transform="translate(0 0)">
    <g id="Icon_Eviar_por_email" data-name="Icon Eviar por email" transform="translate(60.126)">
      <path id="Path_878" data-name="Path 878" d="M1141.969,436.364a3.166,3.166,0,0,1,3.165-3.167h19.015a3.167,3.167,0,0,1,3.167,3.165h0v12.667a3.168,3.168,0,0,1-3.166,3.169h-19.008a3.169,3.169,0,0,1-3.169-3.169h0Zm3.169-1.584a1.583,1.583,0,0,0-1.584,1.582h0v.346l11.088,6.652,11.087-6.652v-.343a1.585,1.585,0,0,0-1.583-1.584Zm20.591,3.775-7.537,4.522,7.537,4.555Zm-.055,10.9-9.02-5.45-2.013,1.209L1152.625,444l-9.019,5.448a1.587,1.587,0,0,0,1.531,1.173h19.006a1.587,1.587,0,0,0,1.531-1.175Zm-22.122-1.817,7.537-4.555-7.537-4.521Z" transform="translate(-1141.969 -433.197)" fill="#343a40"/>
    </g>
    <g id="Icon_Partlhar" data-name="Icon Partlhar" transform="translate(123.802)">
      <path id="Path_886" data-name="Path 886" d="M1204.918,434.385a1.781,1.781,0,1,0,1.781,1.781h0A1.781,1.781,0,0,0,1204.918,434.385Zm-2.968,1.781a2.97,2.97,0,1,1,.716,1.933l-7.979,3.7a2.95,2.95,0,0,1,0,1.785l7.979,3.7a2.97,2.97,0,1,1-.579,1.045l-7.979-3.7a2.968,2.968,0,1,1-.32-4.186,3.152,3.152,0,0,1,.32.32l7.979-3.7a2.965,2.965,0,0,1-.133-.9Zm-10.092,4.749a1.781,1.781,0,1,0,1.781,1.781h0A1.781,1.781,0,0,0,1191.859,440.915Zm13.06,6.536a1.781,1.781,0,1,0,1.781,1.781h0A1.782,1.782,0,0,0,1204.918,447.451Z" transform="translate(-1188.889 -433.195)" fill="#343a40"/>
    </g>
    <g id="Icon_Imprimir" data-name="Icon Imprimir" transform="translate(28.667)">
      <path id="Caminho_1453" data-name="Caminho 1453" d="M1117.08,440.657a.679.679,0,1,0-.68-.68h0a.678.678,0,0,0,.677.68Z" transform="translate(-1113.672 -431.157)" fill="#343a40"/>
      <path id="Caminho_1454" data-name="Caminho 1454" d="M1121.174,433.2a2.718,2.718,0,0,0-2.724,2.714h0v2.714h-1.363a2.72,2.72,0,0,0-2.725,2.714v4.072a2.719,2.719,0,0,0,2.724,2.714h1.365v1.357a2.717,2.717,0,0,0,2.722,2.715h8.17a2.719,2.719,0,0,0,2.724-2.714h0v-1.357h1.363a2.718,2.718,0,0,0,2.724-2.714h0V441.34a2.719,2.719,0,0,0-2.724-2.714h-1.359v-2.711a2.719,2.719,0,0,0-2.721-2.714h0Zm-1.362,2.714a1.359,1.359,0,0,1,1.362-1.357h8.168a1.362,1.362,0,0,1,1.362,1.357v2.714h-10.9Zm1.362,6.786a2.718,2.718,0,0,0-2.724,2.714h0v1.357h-1.363a1.36,1.36,0,0,1-1.362-1.357h0v-4.072a1.359,1.359,0,0,1,1.362-1.357h16.35a1.363,1.363,0,0,1,1.363,1.357v4.072a1.36,1.36,0,0,1-1.363,1.357h-1.367v-1.357a2.719,2.719,0,0,0-2.721-2.714h-8.175Zm9.534,2.714v4.071a1.359,1.359,0,0,1-1.361,1.358h-8.168a1.357,1.357,0,0,1-1.362-1.354v0h0v-4.071a1.359,1.359,0,0,1,1.362-1.357h8.168A1.36,1.36,0,0,1,1130.708,445.411Z" transform="translate(-1114.362 -433.197)" fill="#343a40"/>
    </g>
    <g id="Group_1711" data-name="Group 1711" transform="translate(95.141)">
      <path id="Path_2398" data-name="Path 2398" d="M1173.287,439.3l-2.359,2.359a5.158,5.158,0,1,0,7.3,7.294h0l3.142-3.145a5.159,5.159,0,0,0-1.423-8.293l-1.008,1.007a1.789,1.789,0,0,0-.272.343,3.439,3.439,0,0,1,1.48,5.737l-3.14,3.142a3.441,3.441,0,0,1-4.867-4.864h0l1.359-1.359a6.967,6.967,0,0,1-.22-2.212Z" transform="translate(-1169.417 -431.462)" fill="#343a40"/>
      <path id="Path_2399" data-name="Path 2399" d="M1175.028,437.679a5.157,5.157,0,0,0,1.423,8.293l1.332-1.334a3.439,3.439,0,0,1-1.54-5.752l3.141-3.142a3.44,3.44,0,0,1,4.866,4.864h0l-1.359,1.36a6.886,6.886,0,0,1,.22,2.212l2.359-2.359a5.158,5.158,0,0,0-7.294-7.294Z" transform="translate(-1167.942 -433.062)" fill="#343a40"/>
    </g>
    <g id="Icon_Guardar_Recursos" data-name="Icon Guardar Recursos">
      <path id="Caminho_1296" data-name="Caminho 1296" d="M1304.478,302.052a8.312,8.312,0,1,1,8.314-8.312,8.312,8.312,0,0,1-8.314,8.313Zm0,1.188a9.5,9.5,0,1,0-9.5-9.5,9.5,9.5,0,0,0,9.5,9.5Z" transform="translate(-1294.979 -284.239)" fill="#353a3f"/>
      <path id="Caminho_1297" data-name="Caminho 1297" d="M1303.729,288.239a.594.594,0,0,1,.594.594h0V292.4h3.561a.594.594,0,0,1,0,1.189h-3.562v3.561a.594.594,0,0,1-1.187,0v-3.561h-3.564a.594.594,0,0,1,0-1.189h3.563v-3.561a.6.6,0,0,1,.594-.595Z" transform="translate(-1294.229 -283.489)" fill="#353a3f"/>
    </g>
  </g>
</svg>
