<svg id="Camada_1" data-name="Camada 1" xmlns="http://www.w3.org/2000/svg" viewBox="0 0 20 20"><defs><style>.cls-1{fill:#53a451;}</style></defs><path id="Path_2649" data-name="Path 2649" class="cls-1" d="M20,10A10,10,0,1,1,10,0,10,10,0,0,1,20,10ZM6.87,7.54h1a.34.34,0,0,0,.33-.31A1.57,1.57,0,0,1,9.91,5.81a1.45,1.45,0,0,1,1.63,1.25,1.48,1.48,0,0,1,0,.21c0,.79-.46,1.16-1.2,1.71a2.87,2.87,0,0,0-1.46,2.49v.27a.31.31,0,0,0,.31.31h1a.31.31,0,0,0,.32-.31V11.6c0-.9.34-1.15,1.26-1.85a3.06,3.06,0,0,0,1.55-2.57c0-1.89-1.6-2.8-3.34-2.8-1.58,0-3.31.73-3.43,2.85a.29.29,0,0,0,.28.31Zm2.91,8.05a1.08,1.08,0,1,0-.07,0Z"/></svg>