<svg id="Group_2059" data-name="Group 2059" xmlns="http://www.w3.org/2000/svg" width="27.014" height="21" viewBox="0 0 27.014 21">
  <path id="Path_2815" data-name="Path 2815" d="M1268.412,191.812h6.883a.4.4,0,0,1,.437.354.318.318,0,0,1-.1.227l-3.441,3.344a.511.511,0,0,1-.616.046.374.374,0,0,1-.055-.046l-3.441-3.344a.31.31,0,0,1,.055-.5A.507.507,0,0,1,1268.412,191.812Zm-19.256,2.834h6.883a.4.4,0,0,0,.438-.354.324.324,0,0,0-.1-.227l-3.441-3.344a.511.511,0,0,0-.616-.046.447.447,0,0,0-.055.046l-3.441,3.344a.31.31,0,0,0,.057.5A.5.5,0,0,0,1249.155,194.646Z" transform="translate(-1248.718 -182.729)" fill="#666d73"/>
  <path id="Path_2816" data-name="Path 2816" d="M1262.225,186.476a9.451,9.451,0,0,0-7.143,3.183.963.963,0,0,1-1.3.158.844.844,0,0,1-.167-1.228c.012-.015.025-.03.038-.044a11.561,11.561,0,0,1,15.648-1.409,10.4,10.4,0,0,1,3.88,6.343H1271.3A9.154,9.154,0,0,0,1262.225,186.476Zm-9.074,10.5a9.264,9.264,0,0,0,10.932,6.822,9.377,9.377,0,0,0,5.285-3,.962.962,0,0,1,1.3-.158.844.844,0,0,1,.168,1.228l-.039.044a11.561,11.561,0,0,1-15.649,1.409,10.4,10.4,0,0,1-3.88-6.343Z" transform="translate(-1248.718 -184.729)" fill="#666d73"/>
</svg>
