<svg id="Camada_1" data-name="Camada 1" xmlns="http://www.w3.org/2000/svg" viewBox="0 0 24.99 25"><defs><style>.cls-1{fill:white;}</style></defs><path class="cls-1" d="M22.52,4.06a5.84,5.84,0,0,0-4.13-1.68h-.06a6.34,6.34,0,0,0-5.07,3A11.11,11.11,0,0,0,12.5,6.6a12.19,12.19,0,0,0-.77-1.24,6.33,6.33,0,0,0-5.07-3H6.6A5.9,5.9,0,0,0,.7,8.22c0,3.07,2,4.92,5,7.72a68.8,68.8,0,0,1,6.18,6.37l.06.07v.07H12a.91.91,0,0,0,.53.18h.07a.88.88,0,0,0,.6-.31l0,0a72.17,72.17,0,0,1,6.15-6.34c3-2.8,4.94-4.64,4.94-7.72A5.81,5.81,0,0,0,22.52,4.06Zm.07,4.15c0,1.64-.66,2.82-2.69,4.83-.47.47-1,1-1.67,1.6a76.9,76.9,0,0,0-5.73,5.83,76.9,76.9,0,0,0-5.73-5.83l-.1-.1C6.1,14,5.57,13.5,5.1,13c-2-2-2.69-3.19-2.69-4.82a4.21,4.21,0,0,1,4.2-4.14h0A3.93,3.93,0,0,1,9.43,5.29a8.34,8.34,0,0,1,1.66,2.29l1.41,2.83,1.42-2.83a8.33,8.33,0,0,1,1.66-2.3,3.94,3.94,0,0,1,2.76-1.2h.06a4.15,4.15,0,0,1,2.92,1.19A4.2,4.2,0,0,1,22.59,8.21Z"/></svg>