<svg id="Camada_1" data-name="Camada 1" xmlns="http://www.w3.org/2000/svg" viewBox="0 0 21 21"><defs><style>.cls-1{fill:#dee2e6;}</style></defs><g id="Icon_View_Grid_3x3" data-name="Icon View Grid 3x3"><path id="Path_2854" data-name="Path 2854" class="cls-1" d="M0,1.5A1.5,1.5,0,0,1,1.5,0h3A1.5,1.5,0,0,1,6,1.5H6v3A1.5,1.5,0,0,1,4.5,6h-3A1.5,1.5,0,0,1,0,4.5Zm7.5,0A1.5,1.5,0,0,1,9,0h3a1.5,1.5,0,0,1,1.5,1.5h0v3A1.5,1.5,0,0,1,12,6H9A1.5,1.5,0,0,1,7.5,4.5Zm7.5,0A1.5,1.5,0,0,1,16.5,0h3A1.5,1.5,0,0,1,21,1.5v3A1.5,1.5,0,0,1,19.5,6h-3A1.5,1.5,0,0,1,15,4.5ZM0,9A1.5,1.5,0,0,1,1.5,7.5h3A1.5,1.5,0,0,1,6,9v3a1.5,1.5,0,0,1-1.5,1.5h-3A1.5,1.5,0,0,1,0,12ZM7.5,9A1.5,1.5,0,0,1,9,7.5h3A1.5,1.5,0,0,1,13.5,9v3A1.5,1.5,0,0,1,12,13.5H9A1.5,1.5,0,0,1,7.5,12ZM15,9a1.5,1.5,0,0,1,1.5-1.5h3A1.5,1.5,0,0,1,21,9v3a1.5,1.5,0,0,1-1.5,1.5h-3A1.5,1.5,0,0,1,15,12ZM0,16.5A1.5,1.5,0,0,1,1.5,15h3A1.5,1.5,0,0,1,6,16.5H6v3A1.5,1.5,0,0,1,4.5,21h-3A1.5,1.5,0,0,1,0,19.5Zm7.5,0A1.5,1.5,0,0,1,9,15h3a1.5,1.5,0,0,1,1.5,1.5h0v3A1.5,1.5,0,0,1,12,21H9a1.5,1.5,0,0,1-1.5-1.5h0Zm7.5,0A1.5,1.5,0,0,1,16.5,15h3A1.5,1.5,0,0,1,21,16.5v3A1.5,1.5,0,0,1,19.5,21h-3A1.5,1.5,0,0,1,15,19.5Z"/></g></svg>