<svg id="Camada_1" data-name="Camada 1" xmlns="http://www.w3.org/2000/svg" viewBox="0 0 28 21"><defs><style>.cls-1{fill:#dee2e6;}</style></defs><g id="Icon_View_List" data-name="Icon View List"><g id="Group_2122" data-name="Group 2122"><path id="Path_2852" data-name="Path 2852" class="cls-1" d="M25.37,1.75a.88.88,0,0,1,.88.88V18.38a.87.87,0,0,1-.88.87H2.63a.87.87,0,0,1-.88-.87V2.63a.87.87,0,0,1,.88-.88ZM2.63,0A2.63,2.63,0,0,0,0,2.63H0V18.38A2.62,2.62,0,0,0,2.63,21H25.37A2.62,2.62,0,0,0,28,18.38h0V2.63A2.63,2.63,0,0,0,25.37,0H2.63Z"/><path id="Path_2853" data-name="Path 2853" class="cls-1" d="M8.75,10.5a.87.87,0,0,1,.87-.87H21.87a.88.88,0,0,1,0,1.75H9.62a.87.87,0,0,1-.87-.88Zm0-4.37a.88.88,0,0,1,.87-.88H21.87a.88.88,0,0,1,0,1.75H9.62a.87.87,0,0,1-.87-.87Zm0,8.75A.87.87,0,0,1,9.62,14H21.87a.88.88,0,0,1,0,1.75H9.62A.87.87,0,0,1,8.75,14.88ZM7,6.13a.88.88,0,1,1-.88-.88A.88.88,0,0,1,7,6.13ZM7,10.5a.88.88,0,1,1-1.75,0,.87.87,0,0,1,.87-.87h0A.88.88,0,0,1,7,10.5Zm0,4.38A.88.88,0,1,1,6.12,14a.88.88,0,0,1,.88.88Z"/></g></g></svg>