<svg id="Camada_1" data-name="Camada 1" xmlns="http://www.w3.org/2000/svg" viewBox="0 0 21 21"><defs><style>.cls-1{fill:#dee2e6;}</style></defs><g id="Group_2393" data-name="Group 2393"><path id="Path_3062" data-name="Path 3062" class="cls-1" d="M10.5,18.81a8.31,8.31,0,1,1,8.31-8.31h0a8.31,8.31,0,0,1-8.31,8.31Zm0,1.19A9.5,9.5,0,1,0,1,10.5,9.5,9.5,0,0,0,10.5,20Z"/><path id="Path_3063" data-name="Path 3063" class="cls-1" d="M11.6,8.82l-2.71.34-.1.46.53.1c.35.08.42.2.34.55l-.87,4.12c-.23,1.06.12,1.57,1,1.57a2.52,2.52,0,0,0,1.74-.71l.1-.5a1.28,1.28,0,0,1-.82.29c-.33,0-.44-.23-.36-.63Zm.09-2.48A1.19,1.19,0,1,1,10.5,5.16h0A1.18,1.18,0,0,1,11.69,6.34Z"/></g></svg>