<svg xmlns="http://www.w3.org/2000/svg" viewBox="0 0 781.01 200">
    <defs>
        <style>.cls-1{fill:white;}.cls-1,.cls-2{fill-rule:evenodd;}.cls-2,.cls-3{fill:#fff;}</style>
    </defs>
    <g id="Layer_1" data-name="Layer 1">
        <path class="cls-1" d="M97,8C44.52,8,2,49.19,2,100s42.52,92,95,92,95-41.19,95-92S149.42,8,97,8Zm0,145c-29.5,0-53.42-22.51-53.42-53S67.47,47,97,47s53.42,22.51,53.42,53S126.47,153,97,153Z"/>
        <path class="cls-2" d="M374.48,47c-30.47,0-55.17,23.72-55.17,53s24.7,53,55.17,53,55.18-23.72,55.18-53S405,47,374.48,47Zm0,86.95c-18.1,0-32.78-15.16-32.78-33.87S356.39,66.2,374.49,66.2s32.78,15.16,32.78,33.87S392.59,133.94,374.49,133.94Z"/>
        <path class="cls-2" d="M706.72,47c-30.47,0-55.17,23.72-55.17,53s24.7,53,55.17,53,55.18-23.72,55.18-53S737.2,47,706.72,47Zm0,86.95c-18.1,0-32.78-15.16-32.78-33.87S688.63,66.2,706.73,66.2s32.78,15.16,32.78,33.87S724.83,133.94,706.73,133.94Z"/>
        <rect class="cls-3" x="76.79" y="79.82" width="40.36" height="40.36" rx="5" style="fill:black;"/>
        <path class="cls-2" d="M302,49.27H260.13A17,17,0,0,0,252.57,51l-.51.25a17,17,0,0,0-8.05-2h-8.76v21.6h12.41v80h8.4a13.2,13.2,0,0,0,13.2-13.2V70.87h24.62a14,14,0,0,0,14,14h5.93V61.11A11.85,11.85,0,0,0,302,49.27Z"/><path class="cls-2" d="M626.82,49.27H605V68.86h12.38v82.06h9.39a12.16,12.16,0,0,0,12.16-12.16V61.43A12.15,12.15,0,0,0,626.82,49.27Z"/><path class="cls-2" d="M461.58,48.69c-7.1,2.1-14.7,5.61-18.73,11.21a26.89,26.89,0,0,0,4.3,36c2.5,2,11.33,7.16,19.8,11.57s16.7,9.07,18.25,10.62c6.2,6.2,1.79,15.15-8.47,16.58-10.62,1.67-17.89-1.43-19.09-8.11-1.19-6.2-5.48-9.54-13.24-10.14l-6.56-.48v10.5c0,8.35.81,11.79,2.66,14.61,5.47,8.36,19,12.77,34.92,11.75,11.81-.76,19.16-3.38,25.4-8.71,6.76-5.77,8.65-13,8.47-24.69-.22-14.82-5-19.15-29-29.1-15.33-6.36-21-10.26-21-15.15,0-8.11,14-12.76,25.05-8.35,3.46,1.43,5.06,3.93,5.45,5.49,1.44,6.56,2.07,7.15,5.64,9.42A19.53,19.53,0,0,0,504.4,84h5V73.38c0-11.81-2.31-16.12-9-20.51C491.86,47.16,472.94,45.34,461.58,48.69Z"/><path class="cls-2" d="M545.31,48.69c-7.11,2.1-14.71,5.61-18.73,11.21a26.88,26.88,0,0,0,4.29,36c2.51,2,11.33,7.16,19.8,11.57s16.7,9.07,18.25,10.62c6.2,6.2,1.79,15.15-8.47,16.58-10.61,1.67-17.89-1.43-19.08-8.11-1.19-6.2-5.49-9.54-13.24-10.14l-6.56-.48v10.5c0,8.35.8,11.79,2.65,14.61,5.47,8.36,19,12.77,34.92,11.75,11.81-.76,19.17-3.38,25.41-8.71,6.76-5.77,8.64-13,8.47-24.69-.23-14.82-5-19.15-29-29.1C548.71,84,543,80.06,543,75.17c0-8.11,14-12.76,25.05-8.35,3.46,1.43,5.06,3.93,5.45,5.49,1.43,6.56,2.06,7.15,5.64,9.42a19.5,19.5,0,0,0,9,2.27h5V73.38c0-11.81-2.31-16.12-8.94-20.51C575.58,47.16,556.66,45.34,545.31,48.69Z"/></g></svg>