<svg xmlns="http://www.w3.org/2000/svg" viewBox="0 0 771.53 200"><defs><style>.cls-1{fill:#167fa6;}.cls-1,.cls-2{fill-rule:evenodd;}.cls-2,.cls-3{fill:#000b16;}</style></defs><g id="Layer_1" data-name="Layer 1"><path class="cls-1" d="M97.63,8c-52.45,0-95,41.19-95,92s42.52,92,95,92,95-41.19,95-92S150.08,8,97.63,8Zm0,145c-29.5,0-53.42-22.51-53.42-53S68.13,47,97.63,47s53.42,22.51,53.42,53S127.13,153,97.63,153Z"/><path class="cls-2" d="M375.15,47C344.68,47,320,70.71,320,100s24.71,53,55.18,53,55.17-23.72,55.17-53S405.62,47,375.15,47Zm0,86.95c-18.1,0-32.77-15.16-32.77-33.87S357.05,66.2,375.15,66.2s32.78,15.16,32.78,33.87S393.25,133.94,375.15,133.94Z"/><path class="cls-2" d="M707.39,47c-30.48,0-55.18,23.72-55.18,53s24.7,53,55.18,53,55.17-23.72,55.17-53S737.86,47,707.39,47Zm0,86.95c-18.1,0-32.77-15.16-32.77-33.87S689.29,66.2,707.39,66.2s32.78,15.16,32.78,33.87S725.49,133.94,707.39,133.94Z"/><rect class="cls-3" x="77.45" y="79.82" width="40.36" height="40.36" rx="5"/><path class="cls-2" d="M302.61,49.27H260.8A17,17,0,0,0,253.23,51l-.5.25a17.05,17.05,0,0,0-8.06-2h-8.76v21.6h12.41v80h8.4a13.21,13.21,0,0,0,13.21-13.2V70.87h24.61a14,14,0,0,0,14,14h5.92V61.11A11.84,11.84,0,0,0,302.61,49.27Z"/><path class="cls-2" d="M627.48,49.27H605.65V68.86H618v82.06h9.39a12.15,12.15,0,0,0,12.16-12.16V61.43A12.15,12.15,0,0,0,627.48,49.27Z"/><path class="cls-2" d="M462.24,48.69c-7.1,2.1-14.7,5.61-18.73,11.21a26.89,26.89,0,0,0,4.3,36c2.5,2,11.33,7.16,19.8,11.57s16.7,9.07,18.25,10.62c6.2,6.2,1.79,15.15-8.47,16.58-10.62,1.67-17.89-1.43-19.08-8.11-1.2-6.2-5.49-9.54-13.24-10.14l-6.56-.48v10.5c0,8.35.8,11.79,2.65,14.61,5.47,8.36,19,12.77,34.92,11.75,11.81-.76,19.16-3.38,25.4-8.71,6.76-5.77,8.65-13,8.47-24.69-.22-14.82-5-19.15-29-29.1C465.65,84,460,80.06,460,75.17c0-8.11,14-12.76,25-8.35a8.94,8.94,0,0,1,5.46,5.49c1.43,6.56,2.06,7.15,5.64,9.42A19.45,19.45,0,0,0,505.06,84h5V73.38c0-11.81-2.31-16.12-8.94-20.51C492.52,47.16,473.6,45.34,462.24,48.69Z"/><path class="cls-2" d="M546,48.69c-7.11,2.1-14.7,5.61-18.73,11.21a26.88,26.88,0,0,0,4.29,36c2.51,2,11.34,7.16,19.8,11.57s16.7,9.07,18.25,10.62c6.21,6.2,1.79,15.15-8.47,16.58-10.61,1.67-17.89-1.43-19.08-8.11-1.19-6.2-5.49-9.54-13.24-10.14l-6.56-.48v10.5c0,8.35.8,11.79,2.65,14.61,5.47,8.36,19,12.77,34.92,11.75,11.82-.76,19.17-3.38,25.41-8.71,6.76-5.77,8.64-13,8.47-24.69-.23-14.82-5-19.15-29-29.1-15.32-6.36-21-10.26-21-15.15,0-8.11,14-12.76,25-8.35,3.46,1.43,5.06,3.93,5.45,5.49,1.43,6.56,2.06,7.15,5.64,9.42A19.5,19.5,0,0,0,588.79,84h5V73.38c0-11.81-2.32-16.12-8.95-20.51C576.25,47.16,557.33,45.34,546,48.69Z"/></g></svg>