<svg id="Camada_1" data-name="Camada 1" xmlns="http://www.w3.org/2000/svg" viewBox="0 0 21 21"><defs><style>.cls-1{fill:white;}</style></defs><path id="Path_882" data-name="Path 882" class="cls-1" d="M17,2.19A1.78,1.78,0,1,0,18.81,4,1.78,1.78,0,0,0,17,2.19ZM14.06,4a3,3,0,1,1,.72,1.93l-8,3.71a3,3,0,0,1,0,1.78l8,3.71a3,3,0,1,1-.58,1l-8-3.7A3,3,0,1,1,5.9,8.25h0l.32.32,8-3.7a2.73,2.73,0,0,1-.13-.9ZM4,8.72A1.78,1.78,0,1,0,5.75,10.5h0A1.78,1.78,0,0,0,4,8.72ZM17,15.25A1.78,1.78,0,1,0,18.81,17h0A1.78,1.78,0,0,0,17,15.25Z"/></svg>