<svg id="Camada_1" data-name="Camada 1" xmlns="http://www.w3.org/2000/svg" viewBox="0 0 24.99 25"><defs><style>.cls-1{fill:#b9d8e4;}</style></defs><path class="cls-1" d="M21.91,3.22H3.08l-.21,0c0,.06,0,.12,0,.18h0c0-.07,0-.12,0-.18A2.65,2.65,0,0,0,.43,5.87V19.12a2.66,2.66,0,0,0,2.65,2.66H21.91a2.65,2.65,0,0,0,2.63-2.48l-.21,0H23.22a1.33,1.33,0,0,1-1.31,1.13H3.08a1.33,1.33,0,0,1-1.32-1.33V5.87a1.33,1.33,0,0,1,1.09-1.3l.23,0H21.91a1.33,1.33,0,0,1,1.33,1.32h0V18h0v1.12c0,.07,0,.14,0,.2h1.11l.21,0c0-.06,0-.12,0-.18V18h0V5.87A2.65,2.65,0,0,0,21.91,3.22Z"/><path class="cls-1" d="M17,9.59A.4.4,0,0,0,17,9h0L16,8a.39.39,0,0,0-.56,0l-.83.82,1.59,1.58Z"/><path class="cls-1" d="M8.63,14.78a.54.54,0,0,0-.1.16L7.9,16.85A.2.2,0,0,0,8,17.1h.12l1.91-.64a.31.31,0,0,0,.15-.1L15.6,11,14,9.39Z"/><polygon class="cls-1" points="15.61 10.97 15.61 10.97 15.6 10.97 15.61 10.97"/></svg>