<svg id="Camada_1" data-name="Camada 1" xmlns="http://www.w3.org/2000/svg" viewBox="0 0 24.99 25"><defs><style>.cls-1{fill:#b9d8e4;}</style></defs><path class="cls-1" d="M21.91,3.22H3.08l-.21,0c0,.06,0,.12,0,.18h0c0-.07,0-.12,0-.18A2.65,2.65,0,0,0,.43,5.87V19.12a2.66,2.66,0,0,0,2.65,2.66H21.91a2.65,2.65,0,0,0,2.63-2.48l-.21,0H23.22a1.33,1.33,0,0,1-1.31,1.13H3.08a1.33,1.33,0,0,1-1.32-1.33V5.87a1.33,1.33,0,0,1,1.09-1.3l.23,0H21.91a1.33,1.33,0,0,1,1.33,1.32h0V18h0v1.12c0,.07,0,.14,0,.2h1.11l.21,0c0-.06,0-.12,0-.18V18h0V5.87A2.65,2.65,0,0,0,21.91,3.22Z"/><polygon class="cls-1" points="15.61 10.97 15.61 10.97 15.6 10.97 15.61 10.97"/><path id="Rectangle_765" data-name="Rectangle 765" class="cls-1" d="M7,8.75H18a.76.76,0,0,1,.75.75h0a.76.76,0,0,1-.75.75H7a.76.76,0,0,1-.75-.75h0A.76.76,0,0,1,7,8.75Z"/><path id="Rectangle_766" data-name="Rectangle 766" class="cls-1" d="M7,11.75H18a.76.76,0,0,1,.75.75h0a.76.76,0,0,1-.75.75H7a.76.76,0,0,1-.75-.75h0A.76.76,0,0,1,7,11.75Z"/><path id="Rectangle_767" data-name="Rectangle 767" class="cls-1" d="M7,14.75H18a.76.76,0,0,1,.75.75h0a.76.76,0,0,1-.75.75H7a.76.76,0,0,1-.75-.75h0A.76.76,0,0,1,7,14.75Z"/></svg>