<svg id="Camada_1" data-name="Camada 1" xmlns="http://www.w3.org/2000/svg" viewBox="0 0 24.99 25"><defs><style>.cls-1{fill:#b9d8e4;}</style></defs><g id="Group_2503" data-name="Group 2503"><path id="Path_3088" data-name="Path 3088" class="cls-1" d="M12.5,22.56A10.06,10.06,0,1,1,22.56,12.5,10.05,10.05,0,0,1,12.5,22.56Zm0,1.44A11.5,11.5,0,1,0,1,12.5,11.5,11.5,0,0,0,12.5,24Z"/><path id="Path_3089" data-name="Path 3089" class="cls-1" d="M8.56,9.32a.34.34,0,0,0,.32.35h1.21a.4.4,0,0,0,.38-.36A1.8,1.8,0,0,1,12.4,7.68a1.68,1.68,0,0,1,1.88,1.44,1.93,1.93,0,0,1,0,.24c0,.91-.54,1.33-1.39,2a3.29,3.29,0,0,0-1.68,2.86v.31a.36.36,0,0,0,.36.35h1.17a.36.36,0,0,0,.36-.35v-.16c0-1,.39-1.33,1.45-2.13a3.53,3.53,0,0,0,1.79-3C16.35,7.08,14.51,6,12.51,6,10.68,6,8.69,6.88,8.56,9.32ZM10.8,17.6a1.46,1.46,0,1,0,1.58-1.35h-.13A1.34,1.34,0,0,0,10.8,17.5a.34.34,0,0,0,0,.1Z"/></g></svg>