<svg id="Camada_1" data-name="Camada 1" xmlns="http://www.w3.org/2000/svg" viewBox="0 0 24.99 25"><defs><style>.cls-1{fill:#b9d8e4;}</style></defs><path class="cls-1" d="M21.91,3.22H3.08l-.21,0c0,.06,0,.12,0,.18h0c0-.07,0-.12,0-.18A2.65,2.65,0,0,0,.43,5.87V19.12a2.66,2.66,0,0,0,2.65,2.66H21.91a2.65,2.65,0,0,0,2.63-2.48l-.21,0H23.22a1.33,1.33,0,0,1-1.31,1.13H3.08a1.33,1.33,0,0,1-1.32-1.33V5.87a1.33,1.33,0,0,1,1.09-1.3l.23,0H21.91a1.33,1.33,0,0,1,1.33,1.32h0V18h0v1.12c0,.07,0,.14,0,.2h1.11l.21,0c0-.06,0-.12,0-.18V18h0V5.87A2.65,2.65,0,0,0,21.91,3.22Z"/><path class="cls-1" d="M12.47,16.53a.78.78,0,0,0,.81-.75v-2.4h2.34a.78.78,0,0,0,0-1.56H13.28V9.47a.79.79,0,0,0-.81-.75.78.78,0,0,0-.75.75v2.35H9.37a.78.78,0,0,0,0,1.56h2.35v2.34A.77.77,0,0,0,12.47,16.53Z"/></svg>