<svg id="Camada_1" data-name="Camada 1" xmlns="http://www.w3.org/2000/svg" viewBox="0 0 24.99 25"><defs><style>.cls-1{fill:#b9d8e4;}</style></defs><g id="Group_2501" data-name="Group 2501"><g id="Group_2500" data-name="Group 2500"><path id="Path_3084" data-name="Path 3084" class="cls-1" d="M9.64,0H1.82A1.83,1.83,0,0,0,0,1.82V6.51A1.82,1.82,0,0,0,1.82,8.33H9.64a1.82,1.82,0,0,0,1.82-1.82V1.82A1.83,1.83,0,0,0,9.64,0Z"/><path id="Path_3085" data-name="Path 3085" class="cls-1" d="M9.64,10.42H1.82A1.82,1.82,0,0,0,0,12.24V23.18A1.83,1.83,0,0,0,1.82,25H9.64a1.83,1.83,0,0,0,1.82-1.82V12.24A1.82,1.82,0,0,0,9.64,10.42Z"/><path id="Path_3086" data-name="Path 3086" class="cls-1" d="M23.17,16.67H15.36a1.82,1.82,0,0,0-1.82,1.82v4.69A1.83,1.83,0,0,0,15.36,25h7.81A1.82,1.82,0,0,0,25,23.18V18.49A1.81,1.81,0,0,0,23.17,16.67Z"/><path id="Path_3087" data-name="Path 3087" class="cls-1" d="M23.17,0H15.36a1.83,1.83,0,0,0-1.82,1.82V12.76a1.82,1.82,0,0,0,1.82,1.82h7.81A1.81,1.81,0,0,0,25,12.76V1.82A1.82,1.82,0,0,0,23.17,0Z"/></g></g></svg>